<svg width="308" height="308" viewBox="0 0 308 308" fill="none" xmlns="http://www.w3.org/2000/svg">
<g clip-path="url(#clip0_2_45)">
<mask id="mask0_2_45" style="mask-type:luminance" maskUnits="userSpaceOnUse" x="0" y="0" width="308" height="308">
<path d="M308 0H0V308H308V0Z" fill="white"/>
</mask>
<g mask="url(#mask0_2_45)">
<path d="M110.199 25.1554C129.878 -8.38515 178.37 -8.38514 198.049 25.1554L198.763 26.3736C207.843 41.8469 224.392 51.4021 242.331 51.5278L243.745 51.5376C282.632 51.8099 306.877 93.8049 287.669 127.618L286.971 128.846C278.11 144.445 278.11 163.556 286.971 179.154L287.669 180.382C306.877 214.196 282.632 256.19 243.745 256.462L242.331 256.472C224.392 256.598 207.843 266.154 198.763 281.626L198.049 282.844C178.37 316.385 129.878 316.385 110.199 282.844L109.484 281.626C100.406 266.154 83.8555 256.598 65.9161 256.472L64.5037 256.462C25.6172 256.19 1.3714 214.196 20.5788 180.382L21.2764 179.154C30.1374 163.556 30.1374 144.445 21.2764 128.846L20.5788 127.618C1.3714 93.8049 25.6172 51.8099 64.5037 51.5376L65.9161 51.5278C83.8557 51.4021 100.406 41.8469 109.484 26.3736L110.199 25.1554Z" fill="url(#paint0_linear_2_45)"/>
</g>
</g>
<defs>
<linearGradient id="paint0_linear_2_45" x1="154.125" y1="-5.775e-06" x2="154.125" y2="308" gradientUnits="userSpaceOnUse">
<stop stop-color="#E7F3FE"/>
<stop offset="1" stop-color="#F8FBFE"/>
</linearGradient>
<clipPath id="clip0_2_45">
<rect width="308" height="308" fill="white"/>
</clipPath>
</defs>
</svg>
