<svg width="25" height="24" viewBox="0 0 25 24" fill="none" xmlns="http://www.w3.org/2000/svg">
<path d="M7.19161 5.28C7.19126 6.06174 6.71699 6.76521 5.99244 7.05869C5.26789 7.35218 4.43774 7.17708 3.89345 6.61596C3.34916 6.05483 3.19942 5.21973 3.51483 4.50446C3.83025 3.78918 4.54783 3.33655 5.32921 3.36C6.36704 3.39115 7.19208 4.2417 7.19161 5.28ZM7.24921 8.6208H3.40921V20.64H7.24921V8.6208ZM13.3164 8.6208H9.49561V20.64H13.278V14.3328C13.278 10.8192 17.8572 10.4928 17.8572 14.3328V20.64H21.6492V13.0272C21.6492 7.104 14.8716 7.3248 13.278 10.2336L13.3164 8.6208Z" fill="#939393"/>
</svg>
